<mxfile host="Electron" modified="2024-06-19T19:43:35.553Z" agent="Mozilla/5.0 (Windows NT 10.0; Win64; x64) AppleWebKit/537.36 (KHTML, like Gecko) draw.io/24.2.5 Chrome/120.0.6099.109 Electron/28.1.0 Safari/537.36" etag="zc6mpOa4HWuQDDZl2yCn" version="24.2.5" type="device">
  <diagram name="Page-1" id="WQNyMtTiHIun93eIH3Q2">
    <mxGraphModel dx="1434" dy="884" grid="1" gridSize="10" guides="1" tooltips="1" connect="1" arrows="1" fold="1" page="1" pageScale="1" pageWidth="1019" pageHeight="1320" math="0" shadow="0">
      <root>
        <mxCell id="0" />
        <mxCell id="1" parent="0" />
        <mxCell id="RQFBW9vl6y7sBKyPwEVk-1" value="" style="ellipse;whiteSpace=wrap;html=1;aspect=fixed;fillColor=#33001A;" vertex="1" parent="1">
          <mxGeometry x="310" y="270" width="10" height="10" as="geometry" />
        </mxCell>
        <mxCell id="RQFBW9vl6y7sBKyPwEVk-3" value="&lt;b&gt;&lt;font style=&quot;font-size: 14px;&quot;&gt;-2&lt;/font&gt;&lt;/b&gt;" style="text;html=1;align=center;verticalAlign=middle;whiteSpace=wrap;rounded=0;" vertex="1" parent="1">
          <mxGeometry x="270" y="260" width="60" height="30" as="geometry" />
        </mxCell>
        <mxCell id="RQFBW9vl6y7sBKyPwEVk-4" value="" style="ellipse;whiteSpace=wrap;html=1;aspect=fixed;fillColor=#33001A;" vertex="1" parent="1">
          <mxGeometry x="310" y="330" width="10" height="10" as="geometry" />
        </mxCell>
        <mxCell id="RQFBW9vl6y7sBKyPwEVk-5" value="&lt;b&gt;&lt;font style=&quot;font-size: 14px;&quot;&gt;-1&lt;/font&gt;&lt;/b&gt;" style="text;html=1;align=center;verticalAlign=middle;whiteSpace=wrap;rounded=0;" vertex="1" parent="1">
          <mxGeometry x="270" y="320" width="60" height="30" as="geometry" />
        </mxCell>
        <mxCell id="RQFBW9vl6y7sBKyPwEVk-6" value="" style="ellipse;whiteSpace=wrap;html=1;aspect=fixed;fillColor=#33001A;" vertex="1" parent="1">
          <mxGeometry x="310" y="390" width="10" height="10" as="geometry" />
        </mxCell>
        <mxCell id="RQFBW9vl6y7sBKyPwEVk-7" value="&lt;b&gt;&lt;font style=&quot;font-size: 14px;&quot;&gt;0&lt;/font&gt;&lt;/b&gt;" style="text;html=1;align=center;verticalAlign=middle;whiteSpace=wrap;rounded=0;" vertex="1" parent="1">
          <mxGeometry x="270" y="380" width="60" height="30" as="geometry" />
        </mxCell>
        <mxCell id="RQFBW9vl6y7sBKyPwEVk-10" value="" style="ellipse;whiteSpace=wrap;html=1;aspect=fixed;fillColor=#33001A;" vertex="1" parent="1">
          <mxGeometry x="430" y="270" width="10" height="10" as="geometry" />
        </mxCell>
        <mxCell id="RQFBW9vl6y7sBKyPwEVk-11" value="&lt;b&gt;&lt;font style=&quot;font-size: 14px;&quot;&gt;1&lt;/font&gt;&lt;/b&gt;" style="text;html=1;align=center;verticalAlign=middle;whiteSpace=wrap;rounded=0;" vertex="1" parent="1">
          <mxGeometry x="390" y="260" width="60" height="30" as="geometry" />
        </mxCell>
        <mxCell id="RQFBW9vl6y7sBKyPwEVk-12" value="" style="ellipse;whiteSpace=wrap;html=1;aspect=fixed;fillColor=#33001A;" vertex="1" parent="1">
          <mxGeometry x="430" y="330" width="10" height="10" as="geometry" />
        </mxCell>
        <mxCell id="RQFBW9vl6y7sBKyPwEVk-13" value="&lt;b&gt;&lt;font style=&quot;font-size: 14px;&quot;&gt;2&lt;/font&gt;&lt;/b&gt;" style="text;html=1;align=center;verticalAlign=middle;whiteSpace=wrap;rounded=0;" vertex="1" parent="1">
          <mxGeometry x="390" y="320" width="60" height="30" as="geometry" />
        </mxCell>
        <mxCell id="RQFBW9vl6y7sBKyPwEVk-14" value="" style="ellipse;whiteSpace=wrap;html=1;aspect=fixed;fillColor=#33001A;" vertex="1" parent="1">
          <mxGeometry x="430" y="390" width="10" height="10" as="geometry" />
        </mxCell>
        <mxCell id="RQFBW9vl6y7sBKyPwEVk-15" value="&lt;b&gt;&lt;font style=&quot;font-size: 14px;&quot;&gt;3&lt;/font&gt;&lt;/b&gt;" style="text;html=1;align=center;verticalAlign=middle;whiteSpace=wrap;rounded=0;" vertex="1" parent="1">
          <mxGeometry x="390" y="380" width="60" height="30" as="geometry" />
        </mxCell>
        <mxCell id="RQFBW9vl6y7sBKyPwEVk-25" value="" style="ellipse;whiteSpace=wrap;html=1;aspect=fixed;fillColor=#33001A;" vertex="1" parent="1">
          <mxGeometry x="550" y="270" width="10" height="10" as="geometry" />
        </mxCell>
        <mxCell id="RQFBW9vl6y7sBKyPwEVk-26" value="&lt;b&gt;&lt;font style=&quot;font-size: 14px;&quot;&gt;4&lt;/font&gt;&lt;/b&gt;" style="text;html=1;align=center;verticalAlign=middle;whiteSpace=wrap;rounded=0;" vertex="1" parent="1">
          <mxGeometry x="510" y="260" width="60" height="30" as="geometry" />
        </mxCell>
        <mxCell id="RQFBW9vl6y7sBKyPwEVk-27" value="" style="ellipse;whiteSpace=wrap;html=1;aspect=fixed;fillColor=#33001A;" vertex="1" parent="1">
          <mxGeometry x="550" y="330" width="10" height="10" as="geometry" />
        </mxCell>
        <mxCell id="RQFBW9vl6y7sBKyPwEVk-28" value="&lt;b&gt;&lt;font style=&quot;font-size: 14px;&quot;&gt;5&lt;/font&gt;&lt;/b&gt;" style="text;html=1;align=center;verticalAlign=middle;whiteSpace=wrap;rounded=0;" vertex="1" parent="1">
          <mxGeometry x="510" y="320" width="60" height="30" as="geometry" />
        </mxCell>
        <mxCell id="RQFBW9vl6y7sBKyPwEVk-29" value="" style="ellipse;whiteSpace=wrap;html=1;aspect=fixed;fillColor=#33001A;" vertex="1" parent="1">
          <mxGeometry x="550" y="390" width="10" height="10" as="geometry" />
        </mxCell>
        <mxCell id="RQFBW9vl6y7sBKyPwEVk-30" value="&lt;b&gt;&lt;font style=&quot;font-size: 14px;&quot;&gt;6&lt;/font&gt;&lt;/b&gt;" style="text;html=1;align=center;verticalAlign=middle;whiteSpace=wrap;rounded=0;" vertex="1" parent="1">
          <mxGeometry x="510" y="380" width="60" height="30" as="geometry" />
        </mxCell>
      </root>
    </mxGraphModel>
  </diagram>
</mxfile>
